<?xml version="1.0" standalone="no"?>
<!DOCTYPE svg PUBLIC "-//W3C//DTD SVG 20010904//EN"
 "http://www.w3.org/TR/2001/REC-SVG-20010904/DTD/svg10.dtd">
<svg version="1.0" xmlns="http://www.w3.org/2000/svg"
 width="520.000000pt" height="520.000000pt" viewBox="0 0 520.000000 520.000000"
 preserveAspectRatio="xMidYMid meet">
<metadata>
Created by potrace 1.11, written by Peter Selinger 2001-2013
</metadata>
<g transform="translate(0.000000,520.000000) scale(0.100000,-0.100000)"
fill="#000000" stroke="none">
<path d="M1814 4683 c-49 -81 -229 -253 -334 -321 -52 -34 -99 -63 -104 -65
-11 -4 54 -96 68 -97 10 0 287 143 441 228 84 46 90 51 87 78 -6 58 -97 224
-122 224 -3 0 -19 -21 -36 -47z"/>
<path d="M4321 4553 c-117 -48 -205 -127 -322 -291 -32 -45 -59 -85 -59 -87 0
-3 -12 -24 -26 -46 -88 -141 -217 -433 -468 -1062 -92 -230 -178 -442 -190
-470 -13 -29 -38 -86 -56 -127 -37 -85 -187 -392 -225 -460 -68 -122 -139
-240 -145 -240 -3 0 -23 78 -44 173 -21 94 -51 224 -66 287 -16 63 -31 126
-34 140 -11 62 -151 599 -211 815 -20 72 -40 144 -45 160 -51 189 -172 572
-238 751 -68 184 -138 304 -177 304 -53 0 -377 -153 -559 -264 -232 -142 -363
-261 -414 -378 l-11 -27 62 35 c99 57 267 136 331 155 76 23 183 19 229 -10
111 -69 239 -352 377 -836 23 -82 70 -260 85 -325 19 -79 69 -298 81 -354 8
-39 17 -80 19 -91 5 -22 51 -262 60 -310 2 -16 7 -41 10 -55 6 -31 22 -123 30
-170 3 -19 8 -42 10 -50 2 -8 6 -35 9 -60 3 -25 8 -56 11 -70 6 -29 43 -277
50 -335 29 -233 41 -351 44 -423 1 -40 0 -40 86 68 33 41 62 77 65 80 20 19
151 224 238 370 97 165 296 551 391 760 84 184 223 496 256 575 28 68 52 122
105 240 5 11 38 88 74 170 35 83 81 186 101 230 20 44 48 105 62 135 100 219
208 405 275 473 38 38 54 47 81 47 117 0 132 -241 29 -475 -34 -78 -112 -203
-175 -284 -48 -60 -49 -62 -20 -48 121 63 343 346 463 592 92 187 130 319 130
455 0 136 -39 238 -122 319 -48 48 -70 49 -157 14z"/>
<path d="M1637 3172 c-32 -86 -62 -166 -67 -177 -5 -11 -28 -67 -50 -125 -23
-58 -48 -118 -56 -135 -8 -16 -36 -82 -62 -145 -329 -779 -685 -1364 -896
-1472 -76 -39 -157 -18 -174 45 -36 133 78 396 252 582 36 39 65 74 66 79 0 4
-30 6 -67 4 -50 -3 -69 -9 -77 -22 -6 -10 -47 -66 -90 -124 -212 -286 -347
-533 -392 -717 -26 -102 -27 -230 -5 -329 16 -66 34 -99 77 -134 33 -27 43
-30 93 -28 97 4 211 74 327 199 266 287 550 783 856 1492 74 171 233 572 299
755 28 74 54 144 58 155 5 11 19 48 31 82 l22 61 -41 56 c-23 31 -43 56 -44
56 -1 0 -28 -71 -60 -158z"/>
<path d="M3646 2828 c5 -30 22 -124 29 -168 3 -19 20 -102 36 -185 17 -82 33
-161 35 -175 4 -19 58 -232 88 -350 68 -258 185 -594 270 -770 66 -139 265
-386 414 -515 105 -91 195 -135 285 -142 87 -6 128 9 193 69 69 64 149 225
170 342 3 17 10 51 15 76 16 69 24 260 11 260 -24 0 -70 -63 -78 -106 -24
-136 -75 -219 -162 -263 -146 -74 -349 2 -552 208 -262 264 -469 725 -550
1226 -5 33 -12 70 -15 83 -2 13 -7 51 -10 85 -11 107 -76 265 -130 320 -34 33
-56 35 -49 5z"/>
<path d="M4347 2644 c-1 -1 -58 -4 -126 -7 -68 -4 -126 -9 -129 -12 -3 -3 2
-5 11 -5 9 0 52 -12 94 -27 226 -77 220 -151 -18 -233 -44 -15 -71 -29 -61
-32 25 -6 411 -1 527 6 90 6 169 16 263 32 77 13 194 69 205 98 8 21 -54 80
-115 109 -61 29 -167 52 -283 63 -69 6 -363 12 -368 8z"/>
</g>
</svg>
