<svg xmlns="http://www.w3.org/2000/svg" xmlns:svg="http://www.w3.org/2000/svg" id="SVGRoot" width="100" height="100" version="1.1" viewBox="0 0 100 100"><metadata id="metadata964"/><g id="layer1"><g id="g829" style="fill:#241c1c"><g style="fill:#241c1c;fill-opacity:1;stroke:none;stroke-width:.1;stroke-miterlimit:4;stroke-dasharray:none;stroke-opacity:1" id="g919" transform="translate(-19.227705,-9.127859)"><g id="g911" style="fill:#241c1c;fill-opacity:1;stroke:none;stroke-width:.1;stroke-miterlimit:4;stroke-dasharray:none;stroke-opacity:1"><path id="path896" d="m 62.538804,40.165761 c 1.402608,-1.233253 6.282229,17.238969 8.145811,26.119148 6.701789,-10.214519 9.345154,-27.368533 15.923746,-27.958524 4.992026,3.659359 -2.536588,13.509823 -4.554131,14.118889 2.923965,-3.243743 3.552081,-6.772275 2.548077,-7.895794 -2.661736,-3.395494 -9.601596,22.403209 -17.727055,31.234882 -0.384358,-7.223127 -4.595264,-30.067351 -8.172862,-30.993883 -1.148089,-0.125385 -1.512963,-0.497392 -5.780898,1.944484 0.805891,-3.110417 9.621441,-6.811211 9.617312,-6.569202 z" style="fill:#241c1c;fill-opacity:1;stroke:none;stroke-width:.1;stroke-linecap:butt;stroke-linejoin:miter;stroke-miterlimit:4;stroke-dasharray:none;stroke-opacity:1"/></g><path style="fill:#241c1c;fill-opacity:1;stroke:none;stroke-width:.1;stroke-linecap:butt;stroke-linejoin:miter;stroke-miterlimit:4;stroke-dasharray:none;stroke-opacity:1" id="path898" d="m 60.909642,36.95999 c 0.205562,-0.59336 1.210322,1.507463 1.418948,2.364913 -0.987731,0.53186 -1.202131,0.695037 -5.360469,2.837896 L 56.23237,41.16428 c 3.502455,-1.773621 5.013259,-4.808334 4.677272,-4.20429 z"/><path style="fill:#241c1c;fill-opacity:1;stroke:none;stroke-width:.1;stroke-linecap:butt;stroke-linejoin:miter;stroke-miterlimit:4;stroke-dasharray:none;stroke-opacity:1" id="path904" d="m 46.247183,72.643897 c 3.130991,2.216314 10.121433,-13.126854 13.243512,-21.967412 l 0.840857,1.15618 C 53.714711,70.329469 49.51503,75.204727 47.403363,77.47883 c 0,0 -4.622738,4.542688 -4.729826,-1.786823 0.267658,-4.572182 5.020376,-9.436792 5.045147,-9.985187 1.132208,-0.24681 1.205776,-0.08645 1.471502,0 -3.170633,2.77395 -3.803976,6.577543 -2.943003,6.937077 z"/><path style="fill:#241c1c;fill-opacity:1;stroke:none;stroke-width:.1;stroke-linecap:butt;stroke-linejoin:miter;stroke-miterlimit:4;stroke-dasharray:none;stroke-opacity:1" id="path906" d="m 78.78136,55.444236 c 0.746199,0.110466 1.238744,1.362377 1.709407,2.712755 1.678943,16.068745 12.169508,20.789462 12.914775,13.749577 0.175872,-0.284901 0.341599,-0.569803 0.797641,-0.854704 C 94.441644,74.7895 92.095468,85.008373 83.686615,72.68695 82.300798,70.108794 80.078491,63.744877 78.78136,55.444236 Z"/><path style="fill:#241c1c;fill-opacity:1;stroke:none;stroke-width:.1;stroke-linecap:butt;stroke-linejoin:miter;stroke-miterlimit:4;stroke-dasharray:none;stroke-opacity:1" id="path908" d="m 93.422802,59.234661 c -0.720644,-1.22044 -2.73746,-2.107578 -10.330764,-1.560763 4.375894,1.105464 3.187684,2.064503 0.07432,2.972881 8.412197,0.2017 9.671813,-0.657994 10.256444,-1.412118 z"/></g></g></g></svg>